<svg version="1" xmlns="http://www.w3.org/2000/svg" width="2333.333" height="2333.333" viewBox="0 0 1750.000000 1750.000000"><path d="M689.3 124.9c-8.8 5.5-8.1 19.1 1.1 23.5 4.7 2.2 33.9 2.3 39.1.2 4.6-2 7.5-6.9 7.5-12.9 0-4-.5-5.3-3.4-8.5l-3.4-3.7-18.9-.3c-17.3-.2-19.1-.1-22 1.7zM798.2 125c-8.4 5.2-7.9 17.6 1 23 2.9 1.8 5.1 2 19.5 2 9 0 17.4-.5 19-1.1 4.2-1.6 7.2-4.8 8.4-9.1 1.4-5.2-.2-9.8-4.7-13.8l-3.5-3h-18.2c-16.5 0-18.5.2-21.5 2zM907.3 125.1c-6.2 3.9-7.8 13.5-3.2 19.3 4 5 6.4 5.6 24.6 5.6 14.9 0 17.2-.2 20-2 6.4-3.9 8.8-11.1 5.7-17.5-3.2-6.8-5.5-7.5-25.9-7.5-16.3 0-18.3.2-21.2 2.1zM1015.4 126.2c-4.3 4-5.7 9-3.9 14.2 3 8.7 6.5 9.9 28.5 9.4 14.6-.3 16.8-.5 19.2-2.3 5.7-4.2 7.4-12.4 3.8-18.2-3.4-5.7-5.9-6.3-26-6.3h-18l-3.6 3.2zM614.5 153.9c-12.5 6.4-25 14.6-27.2 18-6 8.9.7 20.2 11.7 20 3.8 0 6.7-1.3 18.4-8.2 7.7-4.5 14.8-9.4 15.8-10.8 5.9-8 .9-19.6-9.2-21.4-2.7-.5-4.8.1-9.5 2.4zM1118 158.7c-2.3 1.2-4.3 3.4-5.8 6.5-2 4-2.2 5.1-1.3 8.6 1.5 5.5 4 7.6 19.4 16.4 14.8 8.6 18.5 9.4 24.4 5.8 6.1-3.7 8.2-12.4 4.4-18.6-2.4-3.9-28.7-19.4-34-20.1-2.3-.2-4.9.3-7.1 1.4zM524.6 206.7c-1.1.3-8.2 4.1-15.9 8.6-16.2 9.4-18 11.4-17.4 19.5.5 7.5 4.4 11.4 11.9 11.9 5.1.4 5.7.2 20.1-8.2 15.8-9.3 18-11.5 18-18.5 0-8.8-8.4-15.4-16.7-13.3zM1212.1 213.8c-6.7 3.6-9 13.1-4.8 19.5 2.4 3.6 29.2 18.9 34.1 19.4 10.5 1.2 18.1-11.9 12.1-21-.9-1.4-8-6.3-15.8-10.8-15.7-9.1-19.9-10.3-25.6-7.1zM428.3 262.5c-6.8 2.9-27.2 15.6-29.2 18.1-3.2 4.1-3.6 8.7-1.2 13.7 2.8 5.7 7.2 8.2 13.2 7.5 6.1-.7 30.4-15 33.7-19.8 4.7-6.9 1.5-16.2-6.5-19.6-4-1.7-5.9-1.7-10 .1zM1304.6 270.1c-2 1.7-4 4.6-4.5 6.4-1.1 4.1 0 9.9 2.5 12.6 2.5 2.8 28.7 17.8 32.3 18.5 4 .8 11.1-2.6 13.4-6.5 2.1-3.7 2.2-10.4.1-14-1.7-2.9-3.9-4.4-20.5-14-8.8-5.1-11.3-6.1-15.2-6.1-3.7 0-5.3.6-8.1 3.1zM331 318.7c-7.3 3.8-11.6 8.3-17.4 18.7-3.5 6.2-4.9 9.8-4.9 12.6 0 8.1 6.9 14.6 14.7 13.6 5.6-.7 8.5-3.2 13.5-11.9 3.2-5.3 5.6-8.2 8.2-9.6 12.1-6.8 9-24-4.7-25.7-3-.4-5.2.1-9.4 2.3zM1400.3 324c-4.5 2.7-6.5 6.2-6.5 11.3 0 3.7 1.2 6.6 6.8 16.3 8.6 15.2 10.9 18.3 15 20 4.4 1.8 6.8 1.8 11.1-.3 4.6-2.1 7.3-6.7 7.3-12.1 0-3.4-1.3-6.6-6.7-16-3.6-6.4-7.7-13.2-9-15-4.6-6.2-12-7.9-18-4.2zM473 349.1c-27.2 3.5-50 14.8-70.1 34.8-16.4 16.4-26.2 33.1-32.7 56l-2.7 9.6-.3 179.2-.2 179.2-65.3.3-65.2.3-7.1 2.6c-22.5 8.2-36.4 27.7-36.4 50.8.1 16.4 4.3 26.6 15.9 38.2 8.1 8.1 14.4 11.8 24.6 14.4 5.3 1.3 73.5 1.5 634.5 1.5s629.2-.2 634.5-1.5c10.2-2.6 16.5-6.3 24.6-14.4 11.6-11.6 15.8-21.8 15.9-38.2 0-23.1-13.9-42.6-36.4-50.8l-7.1-2.6-61.2-.3-61.3-.3-.2-179.2-.3-179.2-2.6-9.5c-12.3-44-44.8-76.5-88.4-88.3l-12-3.2-397-.1c-218.3-.1-399.9.2-403.5.7zM277.5 407.7c-4.4 1.1-7.5 4.8-15.4 18.4-7 11.9-8.3 14.9-8.3 18.6 0 7.5 5.9 13.3 13.5 13.3 6.5 0 9-2.4 17-15.9 9.9-16.8 9.9-16.8 9.9-21.2-.1-5.6-2.7-9.8-7.5-12-4.3-1.9-5.6-2.1-9.2-1.2zM1454.2 419c-3.6 2.2-6.2 7.2-6.2 11.7 0 3.6 14.8 29.8 19 33.5 2.4 2.2 4 2.8 7.8 2.8 8.3 0 14.2-5.7 14.2-13.8 0-3.6-15.2-30.3-19.2-33.7-3.8-3.2-10.8-3.4-15.6-.5zM217.6 505.1c-1.9 1.9-6.9 9.2-11.1 16.4-6.2 10.8-7.5 13.7-7.5 17.4 0 11.3 11.9 17.5 21.1 11 2.8-2 18.2-27.5 19.2-32 .9-3.8-.9-9.2-4.3-12.4-2.3-2.2-4.1-2.9-8.4-3.3-5-.4-5.6-.2-9 2.9zM1510.1 512.7c-5 2.5-7.3 6.7-6.8 12.8.3 4.1 1.9 7.5 8.3 18.5 5.4 9.1 9 14.2 11.3 15.7 8.7 5.9 20.4-.6 20.4-11.2 0-3.5-1.3-6.5-6.8-16.1-8.8-15.3-11-18.3-15.1-20-4.3-1.8-7.1-1.7-11.3.3zM165.5 597.3c-3.9 1.8-4.5 2.6-13.3 17.5-6 10.2-7.6 13.7-7.9 17.7-.8 9.1 6 15.4 15.2 14.2 5.3-.7 9-5 18-20.9 7.6-13.3 8.6-17.9 5.1-23.2-3.5-5.5-11.3-7.9-17.1-5.3zM1563.7 607.7c-3.8 2.5-7.1 9.5-6.3 13.5.7 3.8 13.9 27.3 17.5 31.1 5.4 5.9 13.8 5.7 19.7-.4 2.5-2.6 2.9-3.8 2.8-8.7 0-5.3-.6-6.7-7.7-18.8-4.2-7.2-8.8-14.1-10.2-15.4-3.4-3.1-11.8-3.8-15.8-1.3zM127.1 696.7c-6.4 3.2-7.1 5.6-7.1 25.6 0 19.4.5 21.9 5.7 25.2 3.9 2.6 11.4 2.6 15-.1 5.5-4 6.3-7.3 6.3-24.9 0-13.3-.3-16.6-1.8-19.4-3.5-6.9-11.5-9.8-18.1-6.4zM1597 708.2c-7.2 3.6-8 6.3-8 25.3 0 18.1.9 21.2 6.9 25.2 6.3 4.2 15.1 2 18.6-4.6 2.3-4.5 2.2-37.1-.1-41.1-3.6-6-10.9-8.1-17.4-4.8zM127.5 806c-7 3.5-7.5 5.3-7.5 25.7 0 16.1.2 18.1 2 21.1 3.7 6.1 12.2 7.9 18.1 3.9 6-4 6.9-7.2 6.9-25 0-17.5-.8-21-5.7-24.5-4.5-3.2-9.1-3.6-13.8-1.2zM1595.5 818c-5.7 3.8-6.5 6.7-6.5 24.8 0 18.6.8 21.7 6.7 25.3 2.7 1.7 4.5 2 8.6 1.6 4.2-.4 5.6-1 8.4-4.1l3.3-3.6v-38.2l-3.9-3.9c-3.4-3.5-4.4-3.9-8.7-3.9-3.2 0-6 .7-7.9 2zM123.9 917.9l-3.9 3.9v18.9c0 17.8.1 19.2 2.1 21.7 6.4 8.1 17.9 7.4 22.8-1.4 1.9-3.4 2.1-5.4 2.1-20 0-13.1-.3-16.9-1.7-19.7-2.2-4.8-6.6-7.3-12.7-7.3-4.3 0-5.3.4-8.7 3.9zM1597.5 926c-2.7 1.1-6.1 4.9-7.4 8.3-.6 1.6-1.1 9.8-1.1 18.4 0 12.4.3 16.2 1.7 19 2.2 4.8 6.6 7.3 12.7 7.3 4.3 0 5.3-.4 8.7-3.9l3.9-3.9v-18.9c0-17.8-.1-19.2-2.1-21.7-3.9-4.9-10.9-6.9-16.4-4.6zM126.4 1024.9c-6.2 3.8-6.4 4.7-6.4 25.4v18.9l3.9 3.9c3.4 3.5 4.4 3.9 8.7 3.9 6.1 0 10.5-2.5 12.7-7.3 2.2-4.6 2.5-33 .3-38-3.3-7.7-12.6-11-19.2-6.8zM365.5 1034.7c3.4 62.7 28.2 119.7 70.8 162.6 65.7 66.2 162.2 83.1 244.5 42.7 45.1-22.1 79.2-56.8 102.4-104 12.6-25.5 18.4-33.7 31.3-43.7 35.2-27.6 83.8-25.2 116.9 5.8 9 8.4 14.4 16.2 23.1 33.2 17.1 33.8 36.4 58.8 61.1 79.5 78.9 65.7 186.2 68.1 266.5 6 55-42.5 88.3-107.8 92.4-181.6l.7-12.2H364.9l.6 11.7zM1597.1 1035.8c-6.3 3.1-7.5 6-8.2 18.5-.4 6.4-1.3 13-2.2 15.3-4.7 12.2 8.9 22.8 20 15.6 1.3-.8 3.9-4 5.8-7.2l3.5-5.8v-14.3c0-16.4-1.2-19.8-7.5-22.5-4.5-1.8-7.3-1.8-11.4.4zM163.4 1125.3c-3.1 2.8-3.7 4.1-4.2 8.5-.4 4.9-.1 5.7 5.8 15.9 12.3 21.2 13.3 22.3 21 22.3 6 0 9.8-2.4 12.2-7.6 2.7-6.2 2-8.4-7.5-24.7-8.9-15.5-11.2-17.7-19-17.7-4 0-5.3.5-8.3 3.3zM1554.5 1132c-4.6 1.4-7.5 5.1-15.9 20-7.9 14-8.6 16.6-6.2 22.5 3.1 7.3 14.4 10.1 20.4 5 4-3.3 18.3-28.7 18.9-33.3 1-8.9-8.5-16.8-17.2-14.2zM221.4 1217.4c-4.6 2-7.6 6.8-7.6 12.1 0 3.8 1.2 6.6 6.8 16.3 8.3 14.5 10.7 17.8 14.4 19.7 8.9 4.6 19-2.1 19-12.5 0-3.8-1.2-6.6-8.3-18.5-10.6-18-15-21.1-24.3-17.1zM1498.5 1227.4c-4.2 1.8-5.3 3.3-13.9 18.6-8.4 14.8-9.3 18.7-5.6 24.7 3.8 6.2 12.8 8.1 19.1 4 1.3-.9 6.2-8.2 10.7-16.2 9.1-15.8 10.1-19.6 6.6-25.6-2.1-3.6-7.6-6.9-11.4-6.9-1.4.1-3.8.7-5.5 1.4z"/><path d="M708 1350.4v120.5l11.8 3.7c98.5 30.7 202.1 30.7 300.8-.1l11.4-3.6V1230H708v120.4zm254 6v67.4l-6.7 2c-13.9 4.2-40.3 10.2-44.9 10.2-1.2 0-1.4-5.9-1.4-35.5 0-27.7-.3-35.5-1.2-35.5-7.6 0-70.6-.1-71.5 0-1 0-1.3 8-1.3 36.5v36.6l-3.7-.6c-12.6-2.1-34.2-6.9-42.3-9.4l-9.5-2.8-.3-68.2-.2-68.1h183v67.4zM274.4 1312.9c-4 2.4-6.8 8.3-6.1 12.8.7 4.4 14.9 29 18.8 32.5 2.4 2.3 3.8 2.8 8.3 2.8 8.6 0 14.3-6.1 13.3-14.4-.5-5.1-14.4-29.3-18.8-33.1-3.8-3.1-10.9-3.4-15.5-.6zM1443 1322.8c-2.8 1.4-5.1 4.4-11.9 16.2-7.1 12.2-8.4 15.2-8.5 19.2-.2 10.8 12.6 17.5 21.2 11.1 1.4-1 6.2-8.4 10.8-16.3 9.1-15.7 9.9-18.8 6.6-24.9-3.5-6.5-11.4-8.8-18.2-5.3zM335.5 1402.4c-5 2.3-7.7 6-8.2 11.3-.7 7.7 1.8 10.4 18.7 20.1 13.7 7.9 14.8 8.3 19.3 7.9 11-1 16.1-13.3 9.1-21.6-3.1-3.7-28.1-18-32.5-18.6-1.9-.3-4.7.1-6.4.9zM1383 1407.7c-3.7 1.3-26.8 14.9-29.3 17.2-8.8 8.1-2.7 23.1 9.5 23.1 4.2 0 30.5-14.6 34.2-19.1 3.3-3.9 3.6-10.6.6-15.4-2.8-4.6-10.3-7.5-15-5.8zM428.5 1457.8c-3.9 2.5-5.4 4.3-6.5 8.3-1.2 4.2.2 9.8 3.2 12.6 3.2 2.9 27.7 17 31.1 17.8 4.2 1.1 11.2-2 13.7-5.9 2.9-4.8 2.7-11.6-.5-15.5-1.4-1.6-8.5-6.5-15.8-10.7-14.9-8.7-19.9-10-25.2-6.6zM1273.2 1470.3c-16 9.2-18.2 11.5-18.2 19.1 0 4.3.4 5.3 3.9 8.7 3.4 3.5 4.4 3.9 8.8 3.9 4.2 0 6.6-1 18.3-7.6 15.8-8.9 17.7-10.4 19.1-15.6 1.4-5.2-.2-9.8-4.7-13.8-2.8-2.4-4.3-3-8.2-3-4 0-6.7 1.2-19 8.3zM525.3 1511.1c-5.9 1.7-10.5 10-8.9 16.2 1.1 4.5 4.7 7.5 17.8 15.2 15.3 9 20.7 10.3 26.6 6.5 6.7-4.2 8-14.4 2.6-20.1-3.4-3.5-27.8-17.5-31.9-18.2-1.6-.3-4.4-.1-6.2.4zM1191.5 1517.4c-9.1 4.1-27.2 15.7-29.3 18.7-6.1 8.8 2.1 22.1 12.7 20.6 4.8-.7 31.4-16 33.6-19.4 7.4-11.3-4.7-25.4-17-19.9zM618.3 1566.4c-6.9 3.1-9.5 13.1-5 19.6 2.5 3.7 27 18.6 32.4 19.6 9.5 1.8 17.8-7.2 15.3-16.6-1.3-4.9-4.5-7.5-19-16-13.5-7.8-18.1-9.1-23.7-6.6zM1098 1571.4c-4.6 1.7-25.8 14.2-28.8 16.9-1.2 1.1-2.7 3.8-3.4 5.9-1.6 5.3 1 11.9 5.8 14.9 5.8 3.6 10.8 2.4 25.4-6 6.9-4 13.9-8.6 15.5-10.2 2.7-2.6 3-3.6 3-8.9 0-5.1-.4-6.2-2.9-8.9-1.7-1.7-4.6-3.6-6.5-4.1-4.3-1.2-3.8-1.2-8.1.4zM748.5 1593.4c-1.6.7-4.1 2.6-5.5 4.1-2.1 2.2-2.5 3.7-2.5 8.5 0 5.1.4 6.3 2.9 8.9 4.1 4.3 8 5.1 23.6 5.1 16.1 0 19.8-.9 23.9-5.6 5.8-6.5 3.6-16.5-4.4-20.4-3.6-1.7-6.2-2-19.6-2-10.6.1-16.3.5-18.4 1.4zM857 1593.7c-7.3 3.8-10 12.4-6 19 3.8 6.3 5.5 6.8 25 6.8 14.8 0 18-.3 20.7-1.8 8.4-4.5 8.7-17.8.6-23.3-2.4-1.6-5.1-1.9-19.8-2.2-14.8-.2-17.5 0-20.5 1.5zM967.6 1593c-8.7 2.6-12.1 13.3-6.6 21 3.4 4.8 8.3 6 24.8 6 13.3 0 15.2-.2 19.2-2.3 10.4-5.2 10.4-18.6-.1-23.9-2.8-1.5-6-1.8-18.9-1.7-8.5 0-16.8.5-18.4.9z"/></svg>